<svg display="none" xmlns="http://www.w3.org/2000/svg">
    <symbol id="behance-logo" viewBox="0 0 97.75 97.75">
        <g>
            <g>
                <path d="M39.337,38.729c0-4.611-3.137-4.611-3.137-4.611h-1.661H23.294v9.894H35.4C37.492,44.011,39.337,43.342,39.337,38.729z"/>
                <path d="M36.201,50.846H23.294v11.85h12.311c1.852-0.053,5.27-0.633,5.27-5.76C40.875,50.784,36.201,50.846,36.201,50.846z"/>
                <path d="M69.243,44.011c-6.849,0-7.804,6.835-7.804,6.835h14.565C76.005,50.846,76.092,44.011,69.243,44.011z"/>
                <path d="M48.875,0C21.882,0,0,21.883,0,48.875S21.882,97.75,48.875,97.75S97.75,75.867,97.75,48.875S75.868,0,48.875,0z
			 M59.531,28.848h18.294v5.46H59.531V28.848z M50.285,57.486c0,13.533-14.084,13.088-14.084,13.088H23.294h-0.379h-9.787V26.236
			h9.787h0.379H36.2c7.012,0,12.547,3.871,12.547,11.805c0,7.935-6.766,8.438-6.766,8.438C50.9,46.479,50.285,57.486,50.285,57.486z
			 M69.33,64.479c7.37,0,7.109-4.77,7.109-4.77h7.803c0,12.659-15.172,11.792-15.172,11.792c-18.207,0-17.036-16.95-17.036-16.95
			S52.02,37.517,69.068,37.517c17.947,0,15.434,19.245,15.434,19.245H61.527C61.527,65.001,69.33,64.479,69.33,64.479z"/>
            </g>
        </g>
        <g>
        </g>
        <g>
        </g>
        <g>
        </g>
        <g>
        </g>
        <g>
        </g>
        <g>
        </g>
        <g>
        </g>
        <g>
        </g>
        <g>
        </g>
        <g>
        </g>
        <g>
        </g>
        <g>
        </g>
        <g>
        </g>
        <g>
        </g>
        <g>
        </g>
    </symbol>
    <symbol id="linkedIn-logo" viewBox="0 0 512 512">
        <path d="m256 0c-141.363281 0-256 114.636719-256 256s114.636719 256 256 256 256-114.636719 256-256-114.636719-256-256-256zm-74.390625 387h-62.347656v-187.574219h62.347656zm-31.171875-213.1875h-.40625c-20.921875 0-34.453125-14.402344-34.453125-32.402344 0-18.40625 13.945313-32.410156 35.273437-32.410156 21.328126 0 34.453126 14.003906 34.859376 32.410156 0 18-13.53125 32.402344-35.273438 32.402344zm255.984375 213.1875h-62.339844v-100.347656c0-25.21875-9.027343-42.417969-31.585937-42.417969-17.222656 0-27.480469 11.601563-31.988282 22.800781-1.648437 4.007813-2.050781 9.609375-2.050781 15.214844v104.75h-62.34375s.816407-169.976562 0-187.574219h62.34375v26.558594c8.285157-12.78125 23.109375-30.960937 56.1875-30.960937 41.019531 0 71.777344 26.808593 71.777344 84.421874zm0 0"/>
    </symbol>
    <symbol id="google-plus-logo" viewBox="0 0 24 24">
        <path d="m12 24c6.624 0 12-5.376 12-12s-5.376-12-12-12-12 5.376-12 12 5.376 12 12 12zm4.283-12.857h1.718v-1.717h1.718v1.718h1.703v1.718h-1.703v1.718h-1.718v-1.718h-1.718zm-7.704-5.144c1.514 0 2.908.533 4.017 1.563l-1.626 1.578c-.639-.625-1.514-.924-2.391-.924-2.076 0-3.736 1.718-3.736 3.779s1.655 3.779 3.736 3.779c1.577 0 3.14-.924 3.392-2.579h-3.392v-2.061h5.657c.063.329.092.658.092 1.001 0 3.426-2.299 5.864-5.749 5.864v.001c-3.329 0-6.001-2.686-6.001-6.001s2.672-6 6.001-6z"/>
    </symbol>
    <symbol id="facebook-logo" viewBox="0 0 512 512">
        <path d="m512 256c0-141.4-114.6-256-256-256s-256 114.6-256 256 114.6 256 256 256c1.5 0 3 0 4.5-.1v-199.2h-55v-64.1h55v-47.2c0-54.7 33.4-84.5 82.2-84.5 23.4 0 43.5 1.7 49.3 2.5v57.2h-33.6c-26.5 0-31.7 12.6-31.7 31.1v40.8h63.5l-8.3 64.1h-55.2v189.5c107-30.7 185.3-129.2 185.3-246.1z"/>
    </symbol>
    <symbol id="twitter-logo" viewBox="0 0 512 512">
        <path d="m256 0c-141.363281 0-256 114.636719-256 256s114.636719 256 256 256 256-114.636719 256-256-114.636719-256-256-256zm116.886719 199.601562c.113281 2.519532.167969 5.050782.167969 7.59375 0 77.644532-59.101563 167.179688-167.183594 167.183594h.003906-.003906c-33.183594 0-64.0625-9.726562-90.066406-26.394531 4.597656.542969 9.277343.8125 14.015624.8125 27.53125 0 52.867188-9.390625 72.980469-25.152344-25.722656-.476562-47.410156-17.464843-54.894531-40.8125 3.582031.6875 7.265625 1.0625 11.042969 1.0625 5.363281 0 10.558593-.722656 15.496093-2.070312-26.886718-5.382813-47.140624-29.144531-47.140624-57.597657 0-.265624 0-.503906.007812-.75 7.917969 4.402344 16.972656 7.050782 26.613281 7.347657-15.777343-10.527344-26.148437-28.523438-26.148437-48.910157 0-10.765624 2.910156-20.851562 7.957031-29.535156 28.976563 35.554688 72.28125 58.9375 121.117187 61.394532-1.007812-4.304688-1.527343-8.789063-1.527343-13.398438 0-32.4375 26.316406-58.753906 58.765625-58.753906 16.902344 0 32.167968 7.144531 42.890625 18.566406 13.386719-2.640625 25.957031-7.53125 37.3125-14.261719-4.394531 13.714844-13.707031 25.222657-25.839844 32.5 11.886719-1.421875 23.214844-4.574219 33.742187-9.253906-7.863281 11.785156-17.835937 22.136719-29.308593 30.429687zm0 0"/>
    </symbol>
    <symbol id="about-logo" viewBox="-42 0 512 512.001">
        <path d="m210.351562 246.632812c33.882813 0 63.21875-12.152343 87.195313-36.128906 23.96875-23.972656 36.125-53.304687 36.125-87.191406 0-33.875-12.152344-63.210938-36.128906-87.191406-23.976563-23.96875-53.3125-36.121094-87.191407-36.121094-33.886718 0-63.21875 12.152344-87.191406 36.125s-36.128906 53.308594-36.128906 87.1875c0 33.886719 12.15625 63.222656 36.128906 87.195312 23.980469 23.96875 53.316406 36.125 87.191406 36.125zm-65.972656-189.292968c18.394532-18.394532 39.972656-27.335938 65.972656-27.335938 25.996094 0 47.578126 8.941406 65.976563 27.335938 18.394531 18.398437 27.339844 39.980468 27.339844 65.972656 0 26-8.945313 47.578125-27.339844 65.976562-18.398437 18.398438-39.980469 27.339844-65.976563 27.339844-25.992187 0-47.570312-8.945312-65.972656-27.339844-18.398437-18.394531-27.34375-39.976562-27.34375-65.976562 0-25.992188 8.945313-47.574219 27.34375-65.972656zm0 0"/><path d="m426.128906 393.703125c-.691406-9.976563-2.089844-20.859375-4.148437-32.351563-2.078125-11.578124-4.753907-22.523437-7.957031-32.527343-3.3125-10.339844-7.808594-20.550781-13.375-30.335938-5.769532-10.15625-12.550782-19-20.160157-26.277343-7.957031-7.613282-17.699219-13.734376-28.964843-18.199219-11.226563-4.441407-23.667969-6.691407-36.976563-6.691407-5.226563 0-10.28125 2.144532-20.042969 8.5-6.007812 3.917969-13.035156 8.449219-20.878906 13.460938-6.707031 4.273438-15.792969 8.277344-27.015625 11.902344-10.949219 3.542968-22.066406 5.339844-33.042969 5.339844-10.96875 0-22.085937-1.796876-33.042968-5.339844-11.210938-3.621094-20.300782-7.625-26.996094-11.898438-7.769532-4.964844-14.800782-9.496094-20.898438-13.46875-9.753906-6.355468-14.808594-8.5-20.035156-8.5-13.3125 0-25.75 2.253906-36.972656 6.699219-11.257813 4.457031-21.003906 10.578125-28.96875 18.199219-7.609375 7.28125-14.390625 16.121094-20.15625 26.273437-5.558594 9.785157-10.058594 19.992188-13.371094 30.339844-3.199219 10.003906-5.875 20.945313-7.953125 32.523437-2.0625 11.476563-3.457031 22.363282-4.148437 32.363282-.679688 9.777344-1.023438 19.953125-1.023438 30.234375 0 26.726562 8.496094 48.363281 25.25 64.320312 16.546875 15.746094 38.4375 23.730469 65.066406 23.730469h246.53125c26.621094 0 48.511719-7.984375 65.0625-23.730469 16.757813-15.945312 25.253906-37.589843 25.253906-64.324219-.003906-10.316406-.351562-20.492187-1.035156-30.242187zm-44.90625 72.828125c-10.933594 10.40625-25.449218 15.464844-44.378906 15.464844h-246.527344c-18.933594 0-33.449218-5.058594-44.378906-15.460938-10.722656-10.207031-15.933594-24.140625-15.933594-42.585937 0-9.59375.316406-19.066407.949219-28.160157.617187-8.921874 1.878906-18.722656 3.75-29.136718 1.847656-10.285156 4.199219-19.9375 6.996094-28.675782 2.683593-8.378906 6.34375-16.675781 10.882812-24.667968 4.332031-7.617188 9.316407-14.152344 14.816407-19.417969 5.144531-4.925781 11.628906-8.957031 19.269531-11.980469 7.066406-2.796875 15.007812-4.328125 23.628906-4.558594 1.050781.558594 2.921875 1.625 5.953125 3.601563 6.167969 4.019531 13.277344 8.605469 21.136719 13.625 8.859375 5.648437 20.273437 10.75 33.910156 15.152344 13.941406 4.507812 28.160156 6.796875 42.273437 6.796875 14.113282 0 28.335938-2.289063 42.269532-6.792969 13.648437-4.410156 25.058594-9.507813 33.929687-15.164063 8.042969-5.140624 14.953125-9.59375 21.121094-13.617187 3.03125-1.972656 4.902344-3.042969 5.953125-3.601563 8.625.230469 16.566406 1.761719 23.636719 4.558594 7.636719 3.023438 14.121093 7.058594 19.265625 11.980469 5.5 5.261719 10.484375 11.796875 14.816406 19.421875 4.542969 7.988281 8.207031 16.289062 10.886719 24.660156 2.800781 8.75 5.15625 18.398438 7 28.675782 1.867187 10.433593 3.132812 20.238281 3.75 29.144531v.007812c.636719 9.058594.957031 18.527344.960937 28.148438-.003906 18.449219-5.214844 32.378906-15.9375 42.582031zm0 0"/>
    </symbol>
    <symbol id="scroll-logo" viewBox="0 0 512 512">
        <path d="m458 381.113281v-217.445312c0-3.199219-1.53125-6.207031-4.117188-8.089844l-24.6875-17.949219 19.4375-12.148437c2.789063-1.742188 4.542969-4.746094 4.691407-8.03125.144531-3.285157-1.332031-6.433594-3.953125-8.417969l-18.039063-13.667969v-6.363281h16.667969c5.523438 0 10-4.476562 10-10v-20c0-32.53125-26.46875-59-59-59h-341c-.101562 0-.195312.0117188-.292969.015625-.230469-.0039062-.453125-.015625-.683593-.015625-15.746094 0-30.375 7.777344-41.191407 21.902344-10.210937 13.332031-15.832031 30.910156-15.832031 49.496094 0 33.414062 21.871094 60.601562 48.753906 60.601562h55.324219v158.5c0 3.390625 1.714844 6.546875 4.558594 8.390625l19.605469 12.710937-20.828126 18.609376c-2.121093 1.894531-3.335937 4.609374-3.335937 7.457031v86.664062c0 .539063.054687 1.066407.136719 1.582031-.082032.519532-.136719 1.046876-.136719 1.585938 0 25.441406 6.570313 46.855469 18.996094 61.925781 12.003906 14.554688 29.074219 22.574219 48.0625 22.574219h274.863281c36.394531 0 66-29.605469 66-66 0-32.292969-23.320312-59.226562-54-64.886719zm-375.925781-269.113281c2.945312-5.550781 4.613281-11.957031 4.613281-18.839844 0-23.054687-14.933594-39.160156-36.320312-39.160156-5.523438 0-10 4.476562-10 10s4.476562 10 10 10c10.21875 0 16.320312 7.164062 16.320312 19.160156 0 12.238282-9.242188 18.839844-17.933594 18.839844-15.585937 0-28.753906-18.59375-28.753906-40.601562 0-28.339844 16.609375-51.398438 37.023438-51.398438 14.140624 0 25.195312 4.394531 32.847656 13.058594 9.429687 10.667968 14.207031 27.976562 14.207031 51.441406v27.5zm56.429687 364.699219c-9.4375-11.445313-14.425781-28.457031-14.425781-49.199219 0-.539062-.054687-1.066406-.136719-1.585938.082032-.515624.136719-1.042968.136719-1.582031v-82.191406l27.25-24.351563c2.324219-2.074218 3.550781-5.117187 3.308594-8.226562-.238281-3.105469-1.914063-5.925781-4.527344-7.621094l-26.03125-16.875v-200.566406c0-28.371094-6.417969-50.066406-19.0625-64.5h293.984375c21.503906 0 39 17.496094 39 39v10h-16.667969c-5.519531 0-10 4.476562-10 10v21.332031c0 3.132813 1.46875 6.082031 3.964844 7.972657l10.433594 7.90625-19.695313 12.308593c-2.820312 1.761719-4.578125 4.808594-4.695312 8.128907-.117188 3.320312 1.425781 6.484374 4.113281 8.4375l32.546875 23.671874v211.242188h-254.234375c-.492187 0-.976563.046875-1.453125.117188-.960938-.070313-1.929688-.117188-2.910156-.117188-21.269532 0-37.933594 17.0625-37.933594 38.839844 0 23.058594 14.933594 39.160156 36.320312 39.160156 5.523438 0 10-4.476562 10-10s-4.476562-10-10-10c-10.21875 0-16.320312-7.164062-16.320312-19.160156 0-12.238282 9.242188-18.839844 17.933594-18.839844 15.585937 0 28.753906 18.59375 28.753906 40.601562 0 28.339844-16.605469 51.398438-37.019531 51.398438-13.09375 0-24.378907-5.289062-32.632813-15.300781zm307.496094 15.300781h-235.207031c.515625-.625 1.03125-1.25 1.53125-1.902344 9.585937-12.515625 15.125-28.777344 15.769531-46.097656h155.90625c5.523438 0 10-4.476562 10-10s-4.476562-10-10-10h-157.71875c-2.070312-9.03125-5.78125-17.214844-10.71875-24h230.4375c25.363281 0 46 20.636719 46 46s-20.636719 46-46 46zm0 0"/><path d="m189.359375 98c2.628906 0 5.199219-1.070312 7.070313-2.929688 1.859374-1.859374 2.929687-4.441406 2.929687-7.070312s-1.070313-5.210938-2.929687-7.070312c-1.871094-1.859376-4.441407-2.929688-7.070313-2.929688-2.640625 0-5.210937 1.070312-7.070313 2.929688-1.859374 1.859374-2.929687 4.441406-2.929687 7.070312s1.070313 5.210938 2.929687 7.070312c1.859376 1.859376 4.429688 2.929688 7.070313 2.929688zm0 0"/><path d="m232 98h144.355469c5.523437 0 10-4.476562 10-10s-4.476563-10-10-10h-144.355469c-5.523438 0-10 4.476562-10 10s4.476562 10 10 10zm0 0"/><path d="m189.355469 154h187c5.523437 0 10-4.476562 10-10s-4.476563-10-10-10h-187c-5.519531 0-10 4.476562-10 10s4.480469 10 10 10zm0 0"/><path d="m189.355469 210h187c5.523437 0 10-4.476562 10-10s-4.476563-10-10-10h-187c-5.519531 0-10 4.476562-10 10s4.480469 10 10 10zm0 0"/><path d="m189.355469 266h187c5.523437 0 10-4.476562 10-10s-4.476563-10-10-10h-187c-5.519531 0-10 4.476562-10 10s4.480469 10 10 10zm0 0"/><path d="m189.355469 322h187c5.523437 0 10-4.476562 10-10s-4.476563-10-10-10h-187c-5.519531 0-10 4.476562-10 10s4.480469 10 10 10zm0 0"/><path d="m422.871094 424c-2.632813 0-5.210938 1.070312-7.070313 2.929688-1.859375 1.859374-2.929687 4.441406-2.929687 7.070312s1.066406 5.210938 2.929687 7.070312c1.859375 1.859376 4.4375 2.929688 7.070313 2.929688 2.628906 0 5.207031-1.070312 7.066406-2.929688 1.863281-1.859374 2.933594-4.441406 2.933594-7.070312s-1.070313-5.210938-2.933594-7.070312c-1.859375-1.859376-4.4375-2.929688-7.066406-2.929688zm0 0"/>
    </symbol>
    <symbol id="design-logo" viewBox="0 0 60 60">
        <path d="M51.768,44 C52.0856025,42.3140518 52.0774559,40.5828844 51.744,38.9 L56.324,27.847 C56.324475,27.8396744 56.324475,27.8323256 56.324,27.825 C57.0661765,25.7930545 58.1538399,23.9046136 59.539,22.243 C59.8836484,21.8789644 60.0222907,21.3661004 59.908,20.878 L58.03,12.768 C58.0076534,12.6832194 57.9740193,12.6018249 57.93,12.526 C57.922,12.511 57.919,12.493 57.911,12.479 C57.903,12.465 57.868,12.431 57.848,12.405 C57.8070754,12.3450856 57.7598015,12.289765 57.707,12.24 C57.6722201,12.2155312 57.6358011,12.1934793 57.598,12.174 C57.5492374,12.1381108 57.4973643,12.1066523 57.443,12.08 C57.3676163,12.0515286 57.2890326,12.0323864 57.209,12.023 C57.186,12.023 57.166,12.008 57.143,12.006 C56.9513318,11.9932273 56.7600407,12.0359293 56.592,12.129 C56.577,12.137 56.559,12.14 56.544,12.149 L56.534,12.149 L49.473,16.556 C49.0453916,16.8207951 48.7799726,17.2832106 48.767,17.786 C48.5708465,19.9451573 48.0021029,22.0540084 47.086,24.019 L47.086,24.03 L44.797,29.563 C43.6735383,28.9657711 42.4708203,28.5314189 41.225,28.273 C41.6965799,25.0179304 41.8699664,21.7266009 41.743,18.44 C43.604505,16.2065491 44.4978928,13.322656 44.225,10.428 C43.6,4.6 38.333,0.391 38.108,0.214 C37.7698279,-0.0523076579 37.2991856,-0.0723356385 36.9396118,0.164279752 C36.5800381,0.400895143 36.4122213,0.841057472 36.523,1.257 C37.038,3.191 36.592,5.232 32.788,9.429 C31.0788905,11.0792882 30.537151,13.599108 31.417,15.806 C31.7534006,16.6500981 32.2353835,17.4285817 32.841,18.106 C32.599,19.651 32.409,21.114 32.278,22.539 C32.0524317,24.8959149 31.9942858,27.265859 32.104,29.631 C31.2118959,30.1146673 30.3767018,30.6966199 29.614,31.366 L24.764,10.626 C24.764,10.605 24.744,10.59 24.738,10.571 C24.7217221,10.5043223 24.6982512,10.4396096 24.668,10.378 L19.714,1.229 C19.2182173,0.313273248 18.1708425,-0.157291495 17.1569551,0.0801703906 C16.1430676,0.317632276 15.413582,1.20435428 15.376,2.245 L15,12.64 C15.0002426,12.7150188 15.008625,12.7897898 15.025,12.863 C15.025,12.879 15.025,12.893 15.025,12.908 L19.973,34.025 C19.1924497,34.0594615 18.4176072,34.1750846 17.661,34.37 L12.218,21.225 C11.7815445,20.2201514 10.6239386,19.7460209 9.608,20.156 L1.289,23.6 C0.270867195,24.0249847 -0.212979105,25.1923811 0.206,26.213 L7.588,44.021 C3.26150639,44.2481552 -0.0968272987,47.8800633 0.0148428609,52.2110766 C0.12651302,56.5420899 3.66754905,59.9961056 8,60 L52,60 C54.8581247,59.9585572 57.4770315,58.3954711 58.8702033,55.8995411 C60.2633752,53.403611 60.2191562,50.3540282 58.7542033,47.899541 C57.2892504,45.4450538 54.6261247,43.9585571 51.768,44 Z M50.749,18.116 L54.941,15.5 L53.457,19.084 C53.245475,19.5943111 53.4876889,20.1794749 53.998,20.391 C54.5083111,20.602525 55.0934749,20.3603111 55.305,19.85 L56.789,16.266 L57.9,21.079 C56.7113253,22.5291466 55.734886,24.1409448 55,25.866 C53.9574136,26.3492829 52.7601885,26.3743606 51.6982793,25.9351595 C50.6363701,25.4959584 49.8066253,24.6325347 49.41,23.554 C50.1123254,21.8141227 50.5631888,19.9830587 50.749,18.116 Z M48.449,25.967 C49.1105604,26.7758235 49.9690737,27.4008543 50.942,27.782 C51.715358,28.1146316 52.5471787,28.290038 53.389,28.298 C53.591541,28.2972561 53.7938729,28.2849025 53.995,28.261 L50.804,35.961 C49.8484967,33.8543108 48.3703843,32.0268077 46.51,30.652 L48.449,25.967 Z M34.749,18.825 L39.773,19.132 C39.804,20.066 39.793,21.032 39.762,22.013 C38.0883269,22.1325863 36.4063552,22.0513414 34.752,21.771 C34.626,21.753 34.503,21.739 34.378,21.722 C34.478,20.78 34.6,19.826 34.747,18.825 L34.749,18.825 Z M34.272,10.772 C36.927,7.843 38.303,5.59 38.623,3.472 C40.5314164,5.43554589 41.7911468,7.93755405 42.232,10.64 C42.4420201,12.9925925 41.7146102,15.3329547 40.208,17.152 C38.2326667,17.032 36.279,16.912 34.347,16.792 C33.5168477,16.0159322 33.0392934,14.9347398 33.0247591,13.7984199 C33.0102248,12.6621001 33.4599689,11.5690469 34.27,10.772 L34.272,10.772 Z M34.196,23.715 L34.486,23.753 C35.7745642,23.9522813 37.0752882,24.0628746 38.379,24.084 C38.793,24.084 39.229,24.051 39.666,24.017 C39.575,25.304 39.426,26.648 39.237,28.037 C38.99,28.024 38.748,28 38.5,28 C36.9902207,28.0027075 35.4917669,28.2606769 34.068,28.763 C34.0218873,27.0792875 34.0639448,25.3943153 34.194,23.715 L34.196,23.715 Z M26.461,35.409 L23.6,23.222 C23.4662477,22.6932758 22.9335138,22.3692275 22.4025034,22.4935935 C21.871493,22.6179596 21.5380592,23.14487 21.653,23.678 L24.224,34.647 C23.517125,34.3941989 22.7868667,34.2123043 22.044,34.104 L17.655,15.374 C18.2698416,15.6539387 18.9374297,15.7991851 19.613,15.8 C19.676,15.8 19.743,15.791 19.807,15.788 L20.514,18.807 C20.5901849,19.1603687 20.8511485,19.4451122 21.1965506,19.5517471 C21.5419527,19.6583819 21.9180157,19.5703055 22.180144,19.3213831 C22.4422723,19.0724608 22.5496536,18.7014484 22.461,18.351 L21.753,15.33 C22.4314789,15.0296393 23.0298927,14.5740638 23.5,14 L27.962,33.079 C27.3825613,33.8017588 26.879544,34.5825919 26.461,35.409 Z M20.351,13.709 C19.0720813,13.9570346 17.7662877,13.4341696 17.012,12.372 L17.139,8.85 C17.4869445,8.91498735 17.8400419,8.9484563 18.194,8.95 C18.5358802,8.95143397 18.8767897,8.91351786 19.21,8.837 C19.8846038,8.65983419 20.5156381,8.34601888 21.064,7.915 L22.748,11.023 C22.5473524,12.3125204 21.6092117,13.364553 20.351,13.711 L20.351,13.709 Z M17.612,2.027 C17.7482203,1.99545014 17.8887964,2.05838247 17.956,2.181 L20.1,6.146 C19.7132356,6.49589258 19.251407,6.75246404 18.75,6.896 C18.2375254,6.99006401 17.7102877,6.9650878 17.209,6.823 L17.372,2.317 C17.3774346,2.17726662 17.4757483,2.05847091 17.612,2.027 Z M10.375,22 L11.139,23.846 L7.439,25.378 C7.00035989,25.5622018 6.75222069,26.0299323 6.84566243,26.4964128 C6.93910416,26.9628934 7.34825387,27.2989609 7.824,27.3 C7.95538473,27.2997188 8.08546267,27.2739069 8.207,27.224 L11.907,25.691 L12.672,27.539 L10.821,28.306 C10.3798476,28.4885668 10.1292844,28.9575225 10.2227303,29.4257253 C10.3161762,29.8939282 10.7275636,30.230769 11.205,30.23 C11.336043,30.2295389 11.4657595,30.2037315 11.587,30.154 L13.438,29.387 L14.203,31.235 L10.5,32.77 C10.0588476,32.9525668 9.80828442,33.4215225 9.90173032,33.8897253 C9.99517622,34.3579282 10.4065636,34.694769 10.884,34.694 C11.0150532,34.6936401 11.1447888,34.6678288 11.266,34.618 L14.966,33.086 L15.775,35.039 C12.5163937,36.5263705 10.1268887,39.4347395 9.3,42.92 L2.052,25.444 L10.375,22 Z M52,58 L8,58 C4.6862915,58 2,55.3137085 2,52 C2,48.6862915 4.6862915,46 8,46 C8.57942611,45.9980712 9.15596677,46.0816376 9.711,46.248 C10.0108425,46.338574 10.3358014,46.2834241 10.5889724,46.0989962 C10.8421434,45.9145683 10.9942747,45.6221715 11,45.309 C11.0711354,41.7450748 13.1313914,38.5208944 16.3356408,36.9590336 C19.5398902,35.3971729 23.3488245,35.7605091 26.2,37.9 C26.4519502,38.0875272 26.7773658,38.1457891 27.0787289,38.0573264 C27.380092,37.9688637 27.6223851,37.7439553 27.733,37.45 C29.6867054,32.2431824 35.0863822,29.180449 40.5579023,30.1756283 C46.0294225,31.1708076 50.0048349,35.938715 50,41.5 C50.0019482,42.6436372 49.831707,43.7810507 49.495,44.874 C49.3898991,45.2140443 49.4734568,45.5843237 49.7144054,45.8462781 C49.955354,46.1082324 50.3173755,46.2223776 50.665,46.146 C51.1034596,46.0494957 51.5510461,46.0005462 52,46 C55.3137085,46 58,48.6862915 58,52 C58,55.3137085 55.3137085,58 52,58 Z" id="Shape"/><path d="M38.685,15.7 C38.9988801,15.7011831 39.2951034,15.5549228 39.485,15.305 C40.733449,13.6152456 41.2159189,11.4793188 40.815,9.417 C40.7297094,9.06437307 40.4601236,8.78559883 40.1105522,8.68854207 C39.7609807,8.59148531 39.3862617,8.69137158 39.1313835,8.94955236 C38.8765052,9.20773314 38.7814511,9.58370693 38.883,9.932 C39.1224141,11.3974368 38.7651678,12.8977272 37.891,14.098 C37.6637368,14.4010176 37.6271808,14.8064296 37.7965728,15.1452136 C37.9659648,15.4839976 38.3122279,15.698 38.691,15.698 L38.685,15.7 Z" id="Shape"/><path d="M37.37,46 C36.6263863,46.0022902 35.8929814,46.173247 35.225,46.5 C33.426081,44.0384339 30.0671166,43.3173289 27.4163713,44.8236376 C24.7656259,46.3299464 23.6659757,49.5846973 24.86,52.39 C25.0171133,52.7587213 25.3792008,52.9980139 25.78,52.998 C25.9147522,52.9983171 26.0481479,52.9710935 26.172,52.918 C26.4160049,52.8140419 26.6087162,52.6174075 26.7077364,52.3713573 C26.8067566,52.1253072 26.8039737,51.8499982 26.7,51.606 C26.4823029,51.0985612 26.3700297,50.5521649 26.37,50 C26.37,47.790861 28.160861,46 30.37,46 C31.9215231,45.9922804 33.3346252,46.8913495 33.985,48.3 C34.0066323,48.3325649 34.0299993,48.3639435 34.055,48.394 C34.0707949,48.4282922 34.088489,48.4616773 34.108,48.494 C34.126,48.516 34.152,48.526 34.172,48.547 C34.2189132,48.5957044 34.2708719,48.6392827 34.327,48.677 C34.3769534,48.7154588 34.4305407,48.7489508 34.487,48.777 C34.5450822,48.8013496 34.6053553,48.8201013 34.667,48.833 C34.7284948,48.8491438 34.7914989,48.8588625 34.855,48.862 C34.9849128,48.860958 35.1138416,48.8393574 35.237,48.798 C35.2636553,48.7930893 35.2900268,48.7867468 35.316,48.779 C35.3484491,48.7580203 35.3795134,48.7349726 35.409,48.71 C35.4449944,48.6940029 35.4800508,48.6759739 35.514,48.656 C36.0392687,48.2312063 36.6944582,47.9996307 37.37,48 C38.5392526,48.001903 39.6008636,48.6829732 40.09,49.745 C40.3191982,50.2475791 40.9124209,50.4691981 41.415,50.24 C41.9175791,50.0108018 42.1391981,49.4175791 41.91,48.915 C41.0957188,47.1401647 39.3227138,46.0017705 37.37,46 Z" id="Shape"/><path d="M17.684,39.051 C17.533,39.1 14,40.322 14,44 C14,44.5522847 14.4477153,45 15,45 C15.5522847,45 16,44.5522847 16,44 C16.0816303,42.6050128 16.9994793,41.3982114 18.322,40.947 C18.8466705,40.7708211 19.1291788,40.2026705 18.9529999,39.678 C18.7768211,39.1533295 18.2086705,38.8708212 17.684,39.047 L17.684,39.051 Z" id="Shape"/><path d="M31.757,37.97 C31.8364196,37.9901607 31.9180618,38.00024 32,38 C32.4583065,37.9995296 32.8576317,37.6875697 32.969,37.243 C33.4292692,35.3756621 35.0823575,34.0473753 37.005,34 C37.5572847,33.9986193 38.0038807,33.5497847 38.0025,32.9975 C38.0011193,32.4452153 37.5522847,31.9986193 37,32 C34.1576987,32.0377431 31.7014843,33.9948975 31.03,36.757 C30.8958099,37.292714 31.2212929,37.8357826 31.757,37.97 Z" />
    </symbol>
    <symbol id="globe-logo" viewBox="0 0 74 74">
        <path d="m12.969 62.049a1 1 0 0 1 -.707-.293 35.006 35.006 0 0 1 38.415-56.98 1 1 0 0 1 -.78 1.842 33 33 0 0 0 -36.22 53.724 1 1 0 0 1 -.707 1.707z"/>
        <path d="m36.9 71.965a34.717 34.717 0 0 1 -16.409-4.089 1 1 0 1 1 .944-1.763 33.006 33.006 0 0 0 38.906-52.44 1 1 0 0 1 1.414-1.414 34.958 34.958 0 0 1 -24.855 59.706z"/>
        <path d="m61.059 21.974a1 1 0 0 1 -1-1v-8a1 1 0 0 1 1-1h8a1 1 0 0 1 0 2h-7v7a1 1 0 0 1 -1 1z"/>
        <path d="m12.975 62.056h-8a1 1 0 1 1 0-2h7v-7a1 1 0 0 1 2 0v8a1 1 0 0 1 -1 1z"/>
        <path d="m37 60.049a24.042 24.042 0 1 1 24.042-24.041 24.069 24.069 0 0 1 -24.042 24.041zm0-46.083a22.042 22.042 0 1 0 22.042 22.042 22.066 22.066 0 0 0 -22.042-22.042z"/>
        <path d="m37 60.049c-6.174 0-11.011-10.56-11.011-24.042s4.837-24.041 11.011-24.041 11.011 10.56 11.011 24.042-4.837 24.041-11.011 24.041zm0-46.083c-4.884 0-9.011 10.094-9.011 22.042s4.127 22.041 9.011 22.041 9.011-10.094 9.011-22.042-4.127-22.041-9.011-22.041z"/>
        <path d="m37 60.049a1 1 0 0 1 -1-1v-46.083a1 1 0 1 1 2 0v46.083a1 1 0 0 1 -1 1z"/>
        <path d="m60.042 37.008h-46.084a1 1 0 1 1 0-2h46.084a1 1 0 0 1 0 2z"/>
        <path d="m57.25 26.01h-40.5a1 1 0 0 1 0-2h40.5a1 1 0 0 1 0 2z"/>
        <path d="m57.25 48.01h-40.5a1 1 0 0 1 0-2h40.5a1 1 0 0 1 0 2z"/>
    </symbol>
    <symbol id="pen-logo" viewBox="0 0 511.998 511.998">
        <g>
            <g>
                <path d="M507.602,131.672L380.323,4.393c-5.857-5.858-15.355-5.858-21.213,0l-65.64,65.64c-5.858,5.858-5.858,15.355,0,21.213
			l6.498,6.498l-171.68,85.84c-3.286,1.643-5.855,4.435-7.219,7.846L1.121,491.297c-0.018,0.044-0.035,0.087-0.052,0.131
			c-0.154,0.384-0.287,0.773-0.407,1.164c-0.26,0.848-0.465,1.831-0.568,2.769c-0.441,4.033,0.741,7.883,3.113,10.897
			c0.088,0.112,0.175,0.225,0.267,0.335c3.611,4.334,9.154,6.135,14.351,5.136c0.384-0.073,0.763-0.171,1.142-0.275
			c0.079-0.022,0.16-0.035,0.239-0.059c0.506-0.147,1.005-0.322,1.496-0.523l299.865-119.946c3.411-1.364,6.203-3.933,7.846-7.219
			l85.84-171.68l6.498,6.498c2.929,2.929,6.768,4.394,10.606,4.394c3.838,0,7.678-1.464,10.606-4.394l65.64-65.64
			C513.46,147.028,513.46,137.531,507.602,131.672z M304.13,365.19L77.276,455.932l128.33-128.33
			c5.875,2.817,12.451,4.398,19.389,4.398c24.813,0,45-20.187,45-45s-20.187-45-45-45c-24.813,0-45,20.187-45,45
			c0,6.938,1.581,13.515,4.398,19.389l-128.33,128.33l90.741-226.854l175.524-87.761l69.563,69.563L304.13,365.19z M209.995,287
			c0-8.271,6.729-15,15-15s15,6.729,15,15s-6.729,15-15,15S209.995,295.271,209.995,287z M431.356,186.705l-10.799-10.799
			c-0.009-0.009-0.018-0.018-0.027-0.027l-84.413-84.413c-0.011-0.011-0.022-0.022-0.033-0.033L325.29,80.64l44.426-44.426
			l106.066,106.066L431.356,186.705z"/>
            </g>
        </g>
        <g>
        </g>
        <g>
        </g>
        <g>
        </g>
        <g>
        </g>
        <g>
        </g>
        <g>
        </g>
        <g>
        </g>
        <g>
        </g>
        <g>
        </g>
        <g>
        </g>
        <g>
        </g>
        <g>
        </g>
        <g>
        </g>
        <g>
        </g>
        <g>
        </g>
    </symbol>
    <symbol id="pinned-logo" viewBox="0 0 512 512">
        <g>
            <g>
                <path d="M256,0C156.748,0,76,80.748,76,180c0,33.534,9.289,66.26,26.869,94.652l142.885,230.257
			c2.737,4.411,7.559,7.091,12.745,7.091c0.04,0,0.079,0,0.119,0c5.231-0.041,10.063-2.804,12.75-7.292L410.611,272.22
			C427.221,244.428,436,212.539,436,180C436,80.748,355.252,0,256,0z M384.866,256.818L258.272,468.186l-129.905-209.34
			C113.734,235.214,105.8,207.95,105.8,180c0-82.71,67.49-150.2,150.2-150.2S406.1,97.29,406.1,180
			C406.1,207.121,398.689,233.688,384.866,256.818z"/>
            </g>
        </g>
        <g>
            <g>
                <path d="M256,90c-49.626,0-90,40.374-90,90c0,49.309,39.717,90,90,90c50.903,0,90-41.233,90-90C346,130.374,305.626,90,256,90z
			 M256,240.2c-33.257,0-60.2-27.033-60.2-60.2c0-33.084,27.116-60.2,60.2-60.2s60.1,27.116,60.1,60.2
			C316.1,212.683,289.784,240.2,256,240.2z"/>
            </g>
        </g>
        <g>
        </g>
        <g>
        </g>
        <g>
        </g>
        <g>
        </g>
        <g>
        </g>
        <g>
        </g>
        <g>
        </g>
        <g>
        </g>
        <g>
        </g>
        <g>
        </g>
        <g>
        </g>
        <g>
        </g>
        <g>
        </g>
        <g>
        </g>
        <g>
        </g>
    </symbol>
    <symbol id="smartphone-logo" viewBox="0 0 512 512">
        <path d="m352 8h-192a40.045 40.045 0 0 0 -40 40v416a40.045 40.045 0 0 0 40 40h192a40.045 40.045 0 0 0 40-40v-416a40.045 40.045 0 0 0 -40-40zm-41.758 16-4.8 24h-98.883l-4.8-24zm65.758 440a24.027 24.027 0 0 1 -24 24h-192a24.027 24.027 0 0 1 -24-24v-416a24.027 24.027 0 0 1 24-24h25.441l6.714 33.569a8 8 0 0 0 7.845 6.431h112a8 8 0 0 0 7.845-6.431l6.714-33.569h25.441a24.027 24.027 0 0 1 24 24z"/>
        <path d="m208 456h-48a8 8 0 0 0 0 16h48a8 8 0 0 0 0-16z"/>
        <path d="m240 456h-8a8 8 0 0 0 0 16h8a8 8 0 0 0 0-16z"/>
    </symbol>
    <symbol id="square-logo" viewBox="0 0 408 408">
        <g>
            <g>
                <path d="M397.9,83c5.5,0,10-4.5,10.1-10V10.1C408,4.5,403.5,0,397.9,0H335c-5.5,0-10,4.5-10,10.1V32H83V10.1c0-5.5-4.5-10-10-10.1
			H10.1C4.6,0,0.1,4.5,0,10.1V73c0,5.5,4.5,10,10.1,10H32v242H10.1c-5.5,0-10,4.5-10.1,10v62.9c0,5.5,4.5,10,10.1,10.1H73
			c5.5,0,10-4.5,10-10.1V376h242v21.9c0,5.5,4.5,10,10,10.1h62.9c5.5,0,10-4.5,10.1-10.1V335c0-5.5-4.5-10-10.1-10H376V83H397.9z
			 M20,63V20h43v43H20z M63,388H20v-43h43V388z M325,335v21H83v-21c0-5.5-4.5-10-10-10H52V83h21c5.5,0,10-4.5,10-10V52h242v21
			c0,5.5,4.5,10,10,10h21v242h-21C329.5,325,325,329.5,325,335z M388,345v43h-43v-43H388z M345,63V20h43v43H345z"/>
            </g>
        </g>
        <g>
        </g>
        <g>
        </g>
        <g>
        </g>
        <g>
        </g>
        <g>
        </g>
        <g>
        </g>
        <g>
        </g>
        <g>
        </g>
        <g>
        </g>
        <g>
        </g>
        <g>
        </g>
        <g>
        </g>
        <g>
        </g>
        <g>
        </g>
        <g>
        </g>
    </symbol>
    <symbol id="team-logo" viewBox="0 0 505.4 505.4">
        <g>
            <g>
                <path d="M437.1,233.45c14.8-10.4,24.6-27.7,24.6-47.2c0-31.9-25.8-57.7-57.7-57.7c-31.9,0-57.7,25.8-57.7,57.7
			c0,19.5,9.7,36.8,24.6,47.2c-12.7,4.4-24.3,11.2-34.1,20c-13.5-11.5-29.4-20.3-46.8-25.5c21.1-12.8,35.3-36.1,35.3-62.6
			c0-40.4-32.7-73.1-73.1-73.1c-40.4,0-73.1,32.8-73.1,73.1c0,26.5,14.1,49.8,35.3,62.6c-17.2,5.2-32.9,13.9-46.3,25.2
			c-9.8-8.6-21.2-15.3-33.7-19.6c14.8-10.4,24.6-27.7,24.6-47.2c0-31.9-25.8-57.7-57.7-57.7s-57.7,25.8-57.7,57.7
			c0,19.5,9.7,36.8,24.6,47.2C28.5,247.25,0,284.95,0,329.25v6.6c0,0.2,0.2,0.4,0.4,0.4h122.3c-0.7,5.5-1.1,11.2-1.1,16.9v6.8
			c0,29.4,23.8,53.2,53.2,53.2h155c29.4,0,53.2-23.8,53.2-53.2v-6.8c0-5.7-0.4-11.4-1.1-16.9H505c0.2,0,0.4-0.2,0.4-0.4v-6.6
			C505.2,284.85,476.8,247.15,437.1,233.45z M362.3,186.15c0-23,18.7-41.7,41.7-41.7s41.7,18.7,41.7,41.7
			c0,22.7-18.3,41.2-40.9,41.7c-0.3,0-0.5,0-0.8,0s-0.5,0-0.8,0C380.5,227.45,362.3,208.95,362.3,186.15z M194.9,165.35
			c0-31.5,25.6-57.1,57.1-57.1s57.1,25.6,57.1,57.1c0,30.4-23.9,55.3-53.8,57c-1.1,0-2.2,0-3.3,0c-1.1,0-2.2,0-3.3,0
			C218.8,220.65,194.9,195.75,194.9,165.35z M59.3,186.15c0-23,18.7-41.7,41.7-41.7s41.7,18.7,41.7,41.7c0,22.7-18.3,41.2-40.9,41.7
			c-0.3,0-0.5,0-0.8,0s-0.5,0-0.8,0C77.6,227.45,59.3,208.95,59.3,186.15z M125.5,320.15H16.2c4.5-42.6,40.5-76,84.2-76.3
			c0.2,0,0.4,0,0.6,0s0.4,0,0.6,0c20.8,0.1,39.8,7.8,54.5,20.3C141.7,279.75,131,298.95,125.5,320.15z M366.8,359.95
			c0,20.5-16.7,37.2-37.2,37.2h-155c-20.5,0-37.2-16.7-37.2-37.2v-6.8c0-62.1,49.6-112.9,111.3-114.7c1.1,0.1,2.3,0.1,3.4,0.1
			s2.3,0,3.4-0.1c61.7,1.8,111.3,52.6,111.3,114.7V359.95z M378.7,320.15c-5.5-21.1-16-40-30.3-55.6c14.8-12.8,34-20.5,55-20.7
			c0.2,0,0.4,0,0.6,0s0.4,0,0.6,0c43.7,0.3,79.7,33.7,84.2,76.3H378.7z"/>
            </g>
        </g>
        <g>
        </g>
        <g>
        </g>
        <g>
        </g>
        <g>
        </g>
        <g>
        </g>
        <g>
        </g>
        <g>
        </g>
        <g>
        </g>
        <g>
        </g>
        <g>
        </g>
        <g>
        </g>
        <g>
        </g>
        <g>
        </g>
        <g>
        </g>
        <g>
        </g>
    </symbol>
    <symbol id="address-logo" viewBox="0 1 511 511.999">
        <path d="m498.699219 222.695312c-.015625-.011718-.027344-.027343-.039063-.039062l-208.855468-208.847656c-8.902344-8.90625-20.738282-13.808594-33.328126-13.808594-12.589843 0-24.425781 4.902344-33.332031 13.808594l-208.746093 208.742187c-.070313.070313-.144532.144531-.210938.214844-18.28125 18.386719-18.25 48.21875.089844 66.558594 8.378906 8.382812 19.441406 13.234375 31.273437 13.746093.484375.046876.96875.070313 1.457031.070313h8.320313v153.695313c0 30.417968 24.75 55.164062 55.167969 55.164062h81.710937c8.285157 0 15-6.71875 15-15v-120.5c0-13.878906 11.292969-25.167969 25.171875-25.167969h48.195313c13.878906 0 25.167969 11.289063 25.167969 25.167969v120.5c0 8.28125 6.714843 15 15 15h81.710937c30.421875 0 55.167969-24.746094 55.167969-55.164062v-153.695313h7.71875c12.585937 0 24.421875-4.902344 33.332031-13.8125 18.359375-18.367187 18.367187-48.253906.027344-66.632813zm-21.242188 45.421876c-3.238281 3.238281-7.542969 5.023437-12.117187 5.023437h-22.71875c-8.285156 0-15 6.714844-15 15v168.695313c0 13.875-11.289063 25.164062-25.167969 25.164062h-66.710937v-105.5c0-30.417969-24.746094-55.167969-55.167969-55.167969h-48.195313c-30.421875 0-55.171875 24.75-55.171875 55.167969v105.5h-66.710937c-13.875 0-25.167969-11.289062-25.167969-25.164062v-168.695313c0-8.285156-6.714844-15-15-15h-22.328125c-.234375-.015625-.464844-.027344-.703125-.03125-4.46875-.078125-8.660156-1.851563-11.800781-4.996094-6.679688-6.679687-6.679688-17.550781 0-24.234375.003906 0 .003906-.003906.007812-.007812l.011719-.011719 208.847656-208.839844c3.234375-3.238281 7.535157-5.019531 12.113281-5.019531 4.574219 0 8.875 1.78125 12.113282 5.019531l208.800781 208.796875c.03125.03125.066406.0625.097656.09375 6.644531 6.691406 6.632813 17.539063-.03125 24.207032zm0 0"/>
    </symbol>
    <symbol id="call-us-logo" viewBox="0 0 512.021 512.021">
        <g><path d="m367.988 512.021c-16.528 0-32.916-2.922-48.941-8.744-70.598-25.646-136.128-67.416-189.508-120.795s-95.15-118.91-120.795-189.508c-8.241-22.688-10.673-46.108-7.226-69.612 3.229-22.016 11.757-43.389 24.663-61.809 12.963-18.501 30.245-33.889 49.977-44.5 21.042-11.315 44.009-17.053 68.265-17.053 7.544 0 14.064 5.271 15.645 12.647l25.114 117.199c1.137 5.307-.494 10.829-4.331 14.667l-42.913 42.912c40.482 80.486 106.17 146.174 186.656 186.656l42.912-42.913c3.837-3.837 9.36-5.466 14.667-4.331l117.199 25.114c7.377 1.581 12.647 8.101 12.647 15.645 0 24.256-5.738 47.224-17.054 68.266-10.611 19.732-25.999 37.014-44.5 49.977-18.419 12.906-39.792 21.434-61.809 24.663-6.899 1.013-13.797 1.518-20.668 1.519zm-236.349-479.321c-31.995 3.532-60.393 20.302-79.251 47.217-21.206 30.265-26.151 67.49-13.567 102.132 49.304 135.726 155.425 241.847 291.151 291.151 34.641 12.584 71.867 7.64 102.132-13.567 26.915-18.858 43.685-47.256 47.217-79.251l-95.341-20.43-44.816 44.816c-4.769 4.769-12.015 6.036-18.117 3.168-95.19-44.72-172.242-121.772-216.962-216.962-2.867-6.103-1.601-13.349 3.168-18.117l44.816-44.816z"/><path d="m496.02 272c-8.836 0-16-7.164-16-16 0-123.514-100.486-224-224-224-8.836 0-16-7.164-16-16s7.164-16 16-16c68.381 0 132.668 26.628 181.02 74.98s74.98 112.639 74.98 181.02c0 8.836-7.163 16-16 16z"/><path d="m432.02 272c-8.836 0-16-7.164-16-16 0-88.224-71.776-160-160-160-8.836 0-16-7.164-16-16s7.164-16 16-16c105.869 0 192 86.131 192 192 0 8.836-7.163 16-16 16z"/><path d="m368.02 272c-8.836 0-16-7.164-16-16 0-52.935-43.065-96-96-96-8.836 0-16-7.164-16-16s7.164-16 16-16c70.58 0 128 57.42 128 128 0 8.836-7.163 16-16 16z"/></g>
    </symbol>
</svg>