<?xml version="1.0" encoding="iso-8859-1"?>
<!-- Generator: Adobe Illustrator 19.0.0, SVG Export Plug-In . SVG Version: 6.00 Build 0)  -->
<svg version="1.1" id="Capa_1" xmlns="http://www.w3.org/2000/svg" xmlns:xlink="http://www.w3.org/1999/xlink" x="0px" y="0px"
	 viewBox="0 0 512 512" style="enable-background:new 0 0 512 512;" xml:space="preserve">
<g>
	<g>
		<path d="M502,0h-59.47c-5.523,0-10,4.478-10,10v19.763H295.735V10c0-5.522-4.477-10-10-10h-59.47c-5.523,0-10,4.478-10,10v19.763
			H79.47V10c0-5.522-4.477-10-10-10H10C4.477,0,0,4.478,0,10v59.525c0,5.522,4.477,10,10,10h59.47c5.523,0,10-4.478,10-10V49.763
			h83.186c-29.294,13.281-55.702,32.788-77.221,57.455C49.498,148.413,29.706,201.251,29.706,256c0,5.522,4.477,10,10,10
			s10-4.478,10-10c0-98.511,70.929-183.85,166.559-202.523v16.048c0,5.522,4.477,10,10,10h59.47c5.523,0,10-4.478,10-10V53.524
			c82.569,16.147,147.395,81.16,162.854,164.615c0.892,4.815,5.095,8.181,9.821,8.181c0.604,0,1.217-0.056,1.833-0.169
			c5.431-1.006,9.018-6.224,8.011-11.654c-8.609-46.477-31.231-88.476-65.419-121.458c-18.834-18.17-40.278-32.715-63.554-43.275
			h83.249v19.763c0,5.522,4.477,10,10,10H502c5.523,0,10-4.478,10-10V10C512,4.478,507.523,0,502,0z M59.47,59.525H20V20h39.47
			V59.525z M275.735,59.525h-39.47V20h39.47V59.525z M492,59.525h-39.47V20H492V59.525z"/>
	</g>
</g>
<g>
	<g>
		<path d="M472.05,245.5c-0.01,0-0.02,0-0.03,0c-5.523,0.017-9.987,4.507-9.971,10.029V256c0,5.522,4.477,10,10,10s10-4.478,10-10
			v-0.529C482.034,249.958,477.56,245.5,472.05,245.5z"/>
	</g>
</g>
<g>
	<g>
		<path d="M354.821,287.137l-9.051-11.136c-40.958-50.384-68.595-110.81-79.923-174.746C265,96.479,260.85,93,256,93
			c-4.85,0-9,3.479-9.847,8.255c-11.328,63.937-38.965,124.362-79.923,174.746l-9.052,11.136c-2.427,2.985-2.926,7.099-1.283,10.578
			l41.112,87.06h-4.348c-17.156,0-31.113,13.958-31.113,31.114V502c0,5.522,4.477,10,10,10h168.907c5.523,0,10-4.478,10-10v-86.111
			c0-17.156-13.958-31.114-31.113-31.114h-4.348l41.112-87.06C357.747,294.236,357.248,290.122,354.821,287.137z M256,285.872
			c8.456,0,15.336,6.88,15.336,15.336s-6.88,15.336-15.336,15.336s-15.336-6.88-15.336-15.336S247.544,285.872,256,285.872z
			 M319.339,404.775c6.129-0.001,11.115,4.986,11.115,11.114V492H181.546v-33.612H250c5.523,0,10-4.478,10-10
			c0-5.522-4.477-10-10-10h-68.454v-22.499c0-6.128,4.985-11.114,11.113-11.114h20.129h86.422H319.339z M292.875,384.774h-73.749
			l-42.457-89.907l5.081-6.251c27.317-33.604,48.997-71.454,64.25-111.798v89.246c0,0.419,0.034,0.829,0.084,1.235
			c-14.671,4.297-25.42,17.868-25.42,33.91c0,19.484,15.852,35.336,35.336,35.336s35.336-15.852,35.336-35.336
			c0-16.042-10.749-29.612-25.42-33.91c0.05-0.405,0.084-0.816,0.084-1.235v-89.246c15.253,40.344,36.933,78.195,64.25,111.798
			l5.081,6.251L292.875,384.774z"/>
	</g>
</g>
<g>
	<g>
		<path d="M302.07,441.319c-1.86-1.859-4.44-2.93-7.07-2.93c-2.63,0.001-5.21,1.071-7.07,2.93c-1.86,1.86-2.93,4.431-2.93,7.07
			c0,2.63,1.07,5.21,2.93,7.07c1.86,1.859,4.44,2.93,7.07,2.93s5.21-1.07,7.07-2.93s2.93-4.44,2.93-7.07
			S303.93,443.179,302.07,441.319z"/>
	</g>
</g>
<g>
</g>
<g>
</g>
<g>
</g>
<g>
</g>
<g>
</g>
<g>
</g>
<g>
</g>
<g>
</g>
<g>
</g>
<g>
</g>
<g>
</g>
<g>
</g>
<g>
</g>
<g>
</g>
<g>
</g>
</svg>
