<svg display="none" xmlns="http://www.w3.org/2000/svg">
    <symbol id="world" viewBox="0 0 479.43819 479">
        <g>
            <path d="m478.636719 221.765625c.277343-.75.4375-1.535156.472656-2.335937
                                        0-.84375-.136719-1.683594-.398437-2.484376l-.617188-1.746093c-6.53125-63.125-37.867188-121.070313-87.121094-161.085938-3.519531-2.867187-7.199218-5.457031-10.878906-8.113281-.183594-.152344-.28125-.367188-.480469-.511719s-.359375-.128906-.527343-.234375c-40.722657-29.191406-89.542969-44.929687-139.648438-45.023437-2.0625 0-4.136719 0-5.679688.160156-26.726562.519531-53.164062 5.605469-78.175781 15.039063-21.683593-16.914063-51.117187-19.980469-75.824219-7.898438-24.707031 12.082031-40.359374 37.199219-40.320312 64.699219.480469 9.148437 2.605469 18.132812 6.28125 26.519531-8.164062 11.160156-15.351562 23-21.480469 35.394531-.121093.191407-.191406.398438-.296875.597657-56.71875 117.277343-9.523437 258.390624 106.339844 317.945312 115.859375 59.558594 258.078125 15.8125 320.4375-98.566406 17.078125-31.464844 26.785156-66.398438 28.382812-102.160156.25-3.859376.335938-7.792969.335938-11.730469 0-6.199219-.320312-12.34375-.800781-18.464844zm-23.246094-41.054687c-1.015625-.902344-1.953125-1.945313-3.015625-2.777344-10.453125-7.9375-22.300781-13.855469-34.929688-17.445313-11.5-2.886719-23.519531-3.011719-35.078124-.367187-9.832032 2.226562-20.027344 2.277344-29.882813.148437-19.125-4.175781-34.238281-7.46875-42.253906-20.269531-11.480469-18.402344-6.097657-44.265625 6.015625-53.367188 3.992187-2.753906 8.917968-3.804687 13.6875-2.921874 8.484375.695312 17.011718-.742188 24.800781-4.175782 8.289063-3.882812 15.652344-9.488281 21.601563-16.449218 1.511718 1.167968 3.109374 2.21875 4.589843 3.425781 36.101563 29.390625 62.128907 69.3125 74.464844 114.199219zm-343.953125-164.480469c30.910156.050781 55.953125 25.09375 56 56 0 23.929687-35.941406 78.714843-56 106.488281-19.019531-25.703125-35.546875-53.164062-49.351562-82.007812-3.761719-7.660157-6.019532-15.96875-6.648438-24.480469.035156-30.914063 25.085938-55.964844 56-56zm-96 224c.03125-14.90625 1.535156-29.777344 4.488281-44.390625.855469 11.121094 2.304688 21.015625 3.601563 29.597656 4.957031 32.800781 9.640625 63.722656 33.816406 92 10.109375 11.914062 27.039062 31.832031 53.214844 34.777344 26.175781 2.945312 58.953125-12.113282 68.421875-16.800782l3.632812-1.832031c5.03125-3.167969 10.78125-5.007812 16.714844-5.351562 10.121094.917969 19.496094 5.707031 26.175781 13.367187 13.652344 15.113282 17.117188 40.347656 7.414063 54-3.109375 4.054688-7.402344 7.039063-12.289063 8.539063-8.363281 2.796875-15.472656 8.464843-20.0625 16-6.761718 12.242187-8.019531 26.777343-3.457031 40-105.359375-20.414063-181.507813-112.585938-181.671875-219.90625zm224 224c-7.730469 0-15.453125-.398438-23.144531-1.191407-.65625-.839843-1.265625-1.714843-1.824219-2.625-5.40625-10-5.464844-22.042968-.152344-32.09375 2.886719-4.585937 7.359375-7.949218 12.5625-9.449218 7.628906-2.628906 14.285156-7.515625 19.078125-14.007813 13.914063-19.566406 9.976563-53.464843-8.558593-73.96875-9.640626-11.023437-23.28125-17.742187-37.894532-18.664062h-.355468c-8.425782.253906-16.636719 2.699219-23.832032 7.097656l-3.414062 1.726563c-17.480469 8.617187-42.351563 17.136718-59.566406 15.199218-19.867188-2.222656-33.664063-18.480468-42.816407-29.246094-21.21875-24.800781-25.371093-52.242187-30.167969-84-5.148437-27.167968-5.351562-55.039062-.609374-82.28125 4.285156-8.675781 9.125-17.066406 14.496093-25.121093.265625.53125.558594 1.074219.800781 1.601562.511719 1.015625 1.039063 2.023438 1.597657 3.039063.800781 1.511718 1.601562 3.023437 2.402343 4.546875.550782 1.023437 1.109376 2.046875 1.679688 3.078125.847656 1.519531 1.703125 3.039062 2.566406 4.558594.578125 1.007812 1.152344 2.019531 1.738282 3.027343.890624 1.519531 1.78125 3.03125 2.679687 4.542969.589844.992188 1.175781 1.976562 1.773437 2.960938.945313 1.597656 1.898438 3.09375 2.851563 4.636718.542969.875 1.078125 1.761719 1.597656 2.625 1.183594 1.898438 2.359375 3.738282 3.535157 5.601563.3125.480469.625.984375.929687 1.457031 1.464844 2.269531 2.917969 4.484375 4.34375 6.644531.542969.800781 1.070313 1.601563 1.601563 2.402344.878906 1.320313 1.757812 2.640625 2.613281 3.902344l1.898437 2.777343c.6875 1.015626 1.382813 2.03125 2.054688 3l1.917968 2.757813c.59375.859375 1.1875 1.699219 1.753907 2.503906.566406.808594 1.207031 1.722657 1.800781 2.546875.589844.824219.992188 1.398438 1.464844 2.0625l1.597656 2.207032 1.304688 1.808593 1.273437 1.753907 1.039063 1.40625.976562 1.328124.582031.800782c.714844.96875 1.257813 1.695312 1.410157 1.894531 1.507812 2.015625 3.878906 3.203125 6.398437 3.203125s4.890625-1.1875 6.398437-3.203125c6.714844-8.902344 65.617188-87.871094 65.617188-124.847656 0-2.335938-.144531-4.65625-.367188-6.960938-.070312-.710937-.183593-1.421875-.273437-2.132812-.207031-1.601563-.453125-3.203125-.796875-4.800781-.152344-.800782-.320312-1.550782-.496094-2.320313-.371094-1.601563-.800781-3.199219-1.289062-4.800781-.199219-.640625-.367188-1.289063-.578125-1.917969-.71875-2.144531-1.527344-4.265625-2.445313-6.328125-.175781-.394531-.386718-.800781-.570312-1.160156-.800782-1.664063-1.597656-3.3125-2.519532-4.921875-.398437-.71875-.839843-1.414063-1.269531-2.121094-.769531-1.261719-1.570312-2.503906-2.402343-3.726563-.496094-.710937-1-1.421874-1.519532-2.121093-.273437-.351563-.503906-.726563-.800781-1.070313 16.644531-5.605468 33.90625-9.183594 51.410156-10.65625-12.472656 23.542969-16.546875 45.320313-11.890625 64.800782 3.472656 13.046874 10.0625 25.058593 19.203125 35 7.527344 9.320312 12.941407 16.039062 12.605469 27.007812-.6875 23.199219-26.886719 42.511719-36.800781 49.808594-13.003907 9.363281-27.539063 16.382812-42.957031 20.75-14.53125 4.746094-27.066407 8.839844-31.859376 23.144531-4.738281 18.890625 3.042969 38.710937 19.371094 49.328125 9.785156 5.285156 21.316406 6.304688 31.878906 2.816406 11.570313-2.6875 23.53125-3.261718 35.304688-1.6875 15.199219 2.152344 28.304688 4 34.519531 12.703125 3.6875 5.199219 3.496094 10.574219 2.777344 20.433594-1.640625 13.957031-.222656 28.105469 4.148437 41.460937 3.648438 10.945313 9.160157 27.472657 22.402344 29.378907.859375.136719 1.730469.207031 2.597656.207031 9.371094 0 15.105469-8.273438 21.136719-16.976562 2.664063-3.847657 5.601563-8 9.121094-12.167969 16.464844 26.601562 33.191406 48.800781 33.96875 49.855469 1.511719 2.015624 3.882813 3.199218 6.398437 3.199218 2.519532 0 4.890626-1.183594 6.402344-3.199218 17.355469-23.242188 33.175782-47.601563 47.351563-72.910157 9.828125 2.847657 19.1875 7.113281 27.78125 12.664063-40.027344 69-113.773438 111.457031-193.542969 111.421875zm149.320312-217.703125c11.886719 10.601562 18.683594 25.773437 18.679688 41.703125 0 5.753906-2.335938 17.160156-13.429688 38.824219-12.664062 23.472656-26.882812 46.066406-42.570312 67.632812-7.527344-10.488281-20.480469-29.105469-32.070312-48.671875-6.460938-10.726563-12.230469-21.847656-17.28125-33.304687-3.761719-7.660157-6.019532-15.96875-6.648438-24.480469.035156-30.914063 25.085938-55.964844 56-56 1.730469 0 3.445312.078125 5.152344.234375 11.960937 1.082031 23.25 6.019531 32.167968 14.0625zm74.398438 4.609375c-1.378906 30.429687-9.046875 60.242187-22.527344 87.558593-8.765625-5.542968-18.210937-9.941406-28.09375-13.089843 6.179688-11.566407 9.894532-24.296875 10.902344-37.375-.066406-27.453125-15.675781-52.5-40.296875-64.65625l-.503906-.222657c-1.789063-.863281-3.605469-1.671874-5.460938-2.398437-1.273437-.496094-2.59375-.882813-3.898437-1.296875-.800782-.242188-1.519532-.542969-2.296875-.800781-2.0625-.585938-4.160157-1.0625-6.269531-1.457031h-.105469c-1.277344-.238282-2.574219-.367188-3.871094-.535157-20.570313-2.847656-41.363281 3.390625-56.96875 17.089844-15.609375 13.703125-24.488281 33.511719-24.328125 54.277344.621094 10.664062 3.3125 21.109375 7.921875 30.746093 4.484375 10.210938 9.542969 20.160157 15.152344 29.796876-5 5.472656-9.578125 11.3125-13.699219 17.472656-2.199219 3.769531-4.976562 7.167968-8.230469 10.074218-1.601562-.242187-4.566406-3.65625-9.601562-18.625-3.671875-11.363281-4.824219-23.394531-3.367188-35.246093 2.078125-10.644531.035157-21.679688-5.710937-30.875-10.214844-14.285157-28.046875-16.800781-45.398438-19.261719-13.488281-1.84375-27.199218-1.226562-40.464844 1.816406-10.234374 1.957032-14.984374 2.6875-20.417968-.699218-9.925782-6.804688-14.886719-18.839844-12.640625-30.664063 2.136719-6.398437 8.539062-8.710937 21.601562-13 17.058594-4.894531 33.136719-12.707031 47.527344-23.09375 11.65625-8.550781 42.402344-31.242187 43.328125-62.199219.511719-16.9375-7.960938-27.386718-16.152344-37.488281-7.570312-8.109375-13.078125-17.917969-16.0625-28.601563-4.25-17.824218 1.015625-38.726562 15.296875-62.152343h.917969c44.042969.0625 87.097656 13.078125 123.800781 37.425781-4.238281 4.722656-9.367187 8.558594-15.097656 11.289062-5.578125 2.414063-11.675781 3.367188-17.726563 2.773438-8.414062-1.039062-16.90625 1.144531-23.777343 6.113281-18.140625 13.65625-26.269531 48.480469-9.964844 74.632813 11.605469 18.535156 31.429687 22.855468 53.078125 27.574218 11.652344 2.460938 23.695312 2.410157 35.328125-.152343 9.335937-2.226563 19.070313-2.199219 28.390625.089843 10.488281 3.023438 20.332031 7.953126 29.042969 14.535157 9.046875 7.503906 15.90625 17.300781 19.863281 28.367187.65625 7.066406 1.0625 14.152344 1.0625 21.351563 0 3.578125-.070312 7.199219-.3125 10.90625zm0 0"/><path d="m111.4375 96.230469c17.671875 0 32-14.324219 32-32 0-17.671875-14.328125-32-32-32s-32 14.328125-32 32c0 17.675781 14.328125 32 32 32zm0-48c8.835938 0 16 7.164062 16 16 0 8.835937-7.164062 16-16 16s-16-7.164063-16-16c0-8.835938 7.164062-16 16-16zm0 0"/><path d="m319.4375 280.230469c0 17.675781 14.328125 32 32 32s32-14.324219 32-32c0-17.671875-14.328125-32-32-32s-32 14.328125-32 32zm48 0c0 8.835937-7.164062 16-16 16s-16-7.164063-16-16c0-8.835938 7.164062-16 16-16s16 7.164062 16 16zm0 0"/>
        </g>
    </symbol>
    <symbol id="qualityProduct" viewBox="0 0 512.00043 512">
        <g>
            <path d="m414.476562 327.351562-55.125 36.457032c-6.972656-11.929688-20.089843-19.875-34.707031-19.875h-48.679687c-10.480469
                                             0-15.390625-7.609375-20.308594-11.144532-37.628906-32.625-94.378906-32.625-131.988281-.019531l-10.628907
                                             9.164063h-103.039062c-5.523438 0-10 4.476562-10 10v119.996094c0 5.523437 4.476562 10 10 10h103.820312l179.179688
                                             29.863281c2.640625.441406 5.355469-.195313 7.53125-1.78125l207.359375-151.085938c4.445313-3.242187 5.4375-9.46875
                                             2.21875-13.933593-21.953125-30.4375-63.929687-38.207032-95.632813-17.640626zm-122.328124
                                             164.023438-175.855469-29.308594c-.542969-.089844-1.09375-.136718-1.644531-.136718h-94.648438v-99.996094h96.757812c6.066407
                                             0 7.792969-4.304688 19.992188-14.035156 30.15625-26.148438 75.644531-26.148438 105.804688.003906 4.199218 2.828125
                                             4.023437 16.03125 33.410156 16.03125h48.679687c10.855469 0 20 8.59375 20 19.449218 0 10.78125-8.972656 19.550782-20
                                             19.550782h-120c-5.519531 0-10 4.476562-10 10 0 5.519531 4.480469 10 10 10h120c21.746094 0 39.5-17.253906
                                             39.988281-38.644532l60.800782-40.207031c19.804687-12.847656 45.242187-10.25 61.835937 5.121094zm0 0"/>
            <path d="m325.992188 195.9375c0 5.523438-4.476563 10-10 10-5.519532 0-10-4.476562-10-10s4.480468-10 10-10c5.523437
                                             0 10 4.476562 10 10zm0 0"/>
            <path d="m194.996094 245.933594h239.996094c5.523437 0
                                            10-4.476563 10-9.996094v-39.03125l30.285156-154.988281c.773437-3.960938-.910156-8-4.269532-10.238281-3.359374-2.238282-7.734374-2.238282-11.09375
                                            0l-81.679687 54.453124-54.449219-81.679687c-1.855468-2.78125-4.976562-4.453125-8.320312-4.453125s-6.464844 1.671875-8.320313 4.453125l-54.453125
                                            81.675781-81.675781-54.449218c-3.351563-2.234376-7.710937-2.242188-11.070313-.019532-3.355468 2.222656-5.050781 6.242188-4.300781
                                            10.199219l29.351563 155.015625v39.0625c0 5.519531 4.476562 9.996094 10 9.996094zm54.921875-137.613282c4.597656 3.0625 10.804687
                                            1.820313 13.867187-2.773437l51.679688-77.519531 51.679687 77.519531c3.0625 4.59375 9.269531 5.835937 13.863281
                                            2.773437l70.039063-46.691406-24.289063 124.308594h-65.765624c-5.523438 0-10 4.476562-10 10s4.476562 10 10 10h64v20h-219.996094v-20h66c5.523437
                                            0 10-4.476562 10-10s-4.476563-10-10-10h-67.714844l-23.5625-124.417969zm0 0"/>
        </g>
    </symbol>
    <symbol id="shoppingCart" viewBox="0 0 450.391 450.391">
        <g>
            <g>
                <g>
                    <g>
                        <path d="M143.673,350.322c-25.969,0-47.02,21.052-47.02,47.02c0,25.969,21.052,47.02,47.02,47.02
				c25.969,0,47.02-21.052,47.02-47.02C190.694,371.374,169.642,350.322,143.673,350.322z M143.673,423.465
				c-14.427,0-26.122-11.695-26.122-26.122c0-14.427,11.695-26.122,26.122-26.122c14.427,0,26.122,11.695,26.122,26.122
				C169.796,411.77,158.1,423.465,143.673,423.465z"/>
                        <path d="M342.204,350.322c-25.969,0-47.02,21.052-47.02,47.02c0,25.969,21.052,47.02,47.02,47.02s47.02-21.052,47.02-47.02
				C389.224,371.374,368.173,350.322,342.204,350.322z M342.204,423.465c-14.427,0-26.122-11.695-26.122-26.122
				c0-14.427,11.695-26.122,26.122-26.122s26.122,11.695,26.122,26.122C368.327,411.77,356.631,423.465,342.204,423.465z"/>
                        <path d="M448.261,76.037c-2.176-2.377-5.153-3.865-8.359-4.18L99.788,67.155L90.384,38.42
				C83.759,19.211,65.771,6.243,45.453,6.028H10.449C4.678,6.028,0,10.706,0,16.477s4.678,10.449,10.449,10.449h35.004
				c11.361,0.251,21.365,7.546,25.078,18.286l66.351,200.098l-5.224,12.016c-5.827,15.026-4.077,31.938,4.702,45.453
				c8.695,13.274,23.323,21.466,39.184,21.943h203.233c5.771,0,10.449-4.678,10.449-10.449c0-5.771-4.678-10.449-10.449-10.449
				H175.543c-8.957-0.224-17.202-4.936-21.943-12.539c-4.688-7.51-5.651-16.762-2.612-25.078l4.18-9.404l219.951-22.988
				c24.16-2.661,44.034-20.233,49.633-43.886l25.078-105.012C450.96,81.893,450.36,78.492,448.261,76.037z M404.376,185.228
				c-3.392,15.226-16.319,26.457-31.869,27.69l-217.339,22.465L106.58,88.053l320.261,4.702L404.376,185.228z"/>
                    </g>
                </g>
            </g>
            <g>
            </g>
            <g>
            </g>
            <g>
            </g>
            <g>
            </g>
            <g>
            </g>
            <g>
            </g>
            <g>
            </g>
            <g>
            </g>
            <g>
            </g>
            <g>
            </g>
            <g>
            </g>
            <g>
            </g>
            <g>
            </g>
            <g>
            </g>
            <g>
            </g>
        </g>
    </symbol>
    <symbol id="carrot" viewBox="0 0 512 512">
        <g>
            <path d="m179.7 23.26 8.237 23.16c.353.991 1.051 1.777 1.932 2.174l20.577 9.271c2.907 1.31 2.907 5.941 0 7.251l-20.577 9.271c-.881.397-1.579 1.183-1.932 2.174l-8.237 23.16c-1.164 3.272-5.279 3.272-6.443 0l-8.237-23.16c-.353-.992-1.051-1.777-1.932-2.174l-20.577-9.271c-2.907-1.31-2.907-5.941 0-7.251l20.577-9.271c.881-.397 1.579-1.183 1.932-2.174l8.237-23.16c1.165-3.272 5.28-3.272 6.443 0z"/><path d="m60.602 161.474 6.11 17.18c.262.736.78 1.318 1.433 1.613l15.264 6.877c2.156.971 2.156 4.407 0 5.379l-15.264 6.877c-.653.294-1.171.877-1.433 1.613l-6.11 17.18c-.863 2.427-3.916 2.427-4.779 0l-6.11-17.18c-.262-.736-.779-1.318-1.433-1.613l-15.264-6.877c-2.156-.971-2.156-4.407 0-5.379l15.264-6.877c.654-.294 1.171-.877 1.433-1.613l6.11-17.18c.864-2.428 3.916-2.428 4.779 0z"/><ellipse cx="454.844" cy="269.55" rx="17.985" ry="17.985" transform="matrix(.19 -.982 .982 .19 103.894 664.993)"/><path d="m79.957 92.836c0 4.285-3.474 7.758-7.758 7.758s-7.758-3.474-7.758-7.758c0-4.285 3.473-7.758 7.758-7.758s7.758 3.474 7.758 7.758z"/><path d="m401.294 336.282 8.237 23.16c.353.992 1.051 1.777 1.932 2.174l20.577 9.271c2.907 1.31 2.907 5.941 0 7.251l-20.577 9.271c-.881.397-1.579 1.183-1.932 2.174l-8.237 23.16c-1.164 3.272-5.279 3.272-6.443 0l-8.237-23.16c-.353-.992-1.051-1.777-1.932-2.174l-20.577-9.271c-2.907-1.31-2.907-5.941 0-7.251l20.577-9.271c.881-.397 1.579-1.183 1.932-2.174l8.237-23.16c1.164-3.272 5.279-3.272 6.443 0z"/><path d="m262.097 181.844c-4.184 0-8.087-2.639-9.499-6.823-1.771-5.247 1.046-10.936 6.293-12.708 1.857-.627 3.737-1.209 5.587-1.73 5.33-1.501 10.868 1.605 12.369 6.935 1.501 5.331-1.604 10.868-6.935 12.369-1.523.428-3.072.908-4.606 1.426-1.064.361-2.146.531-3.209.531z"/><path d="m182.566 238.875c-2.547 0-5.095-.964-7.049-2.897-3.938-3.893-3.974-10.242-.08-14.18 12.307-12.447 31.088-30.521 52.013-43.717 4.684-2.954 10.876-1.552 13.83 3.132s1.552 10.876-3.132 13.83c-19.181 12.097-36.838 29.11-48.451 40.854-1.961 1.984-4.545 2.978-7.131 2.978z"/><path d="m508.88 125.291c-5.119-14.732-23.201-20.803-49.991-17.948 3.099-5.511 5.572-10.93 7.37-16.195 6.216-18.195 4.079-33.798-6.017-43.934-12.83-12.879-33.494-12.533-56.704-.623.244-3.322.344-6.509.288-9.538-.475-25.621-11.762-33.392-18.448-35.744-22.189-7.803-47.338 19.672-65.643 71.703-7.444 21.159-12.172 42.095-13.551 59.732-22.35-10.427-45.043-11.367-69.309-2.876-28.878 10.104-59.109 33.355-92.419 71.083-46.399 52.551-88.358 115.201-115.12 171.886-20.72 43.889-40.421 101.517-16.609 126.818 8.388 8.914 20.945 12.345 35.311 12.345 29.473 0 66.554-14.444 90.842-25.629 57.927-26.675 121.184-69.356 173.55-117.099 38.031-34.674 61.367-64.748 71.34-91.941 8.838-24.096 7.804-46.525-3.255-70.56-.39-.975-.827-1.967-1.285-2.967 17.196-1.51 37.337-6.077 57.694-13.149 52.102-18.103 79.675-43.149 71.956-65.364zm-73.508-67.598c4.599 0 8.245 1.248 10.662 3.675 5.966 5.988 3.342 17.166 1.248 23.297-4.663 13.65-15.798 29.7-31.352 45.194-16.174 16.111-33.819 28.592-49.685 35.143-4.402 1.817-8.541 3.076-12.23 3.788-4.995-5.248-10.369-10.323-15.922-15.011.694-3.883 2.03-8.31 3.998-13.025 6.613-15.84 19.162-33.437 35.335-49.548 23.003-22.914 44.538-33.513 57.946-33.513zm-96.72 21.975c15.535-44.157 33.096-59.582 39.168-59.582.337 0 .638.048.903.14 1.915.674 4.841 5.81 5.052 17.199.126 6.769-.727 14.763-2.469 23.575-5.982 4.67-12.019 10.007-18.033 15.998-15.441 15.382-27.998 32.216-36.057 48.191 1.686-12.389 5.165-27.694 11.436-45.521zm26.29 190.758c-8.836 24.092-30.433 51.578-66.024 84.027-50.905 46.411-112.295 87.854-168.427 113.702-61.727 28.425-94.151 27.33-103.161 17.756-9.401-9.989-9.046-42.69 20.14-104.512 8.06-17.072 17.549-34.71 28.151-52.448l50.297 41.578c1.87 1.546 4.133 2.299 6.383 2.299 2.886 0 5.751-1.24 7.734-3.639 3.528-4.268 2.928-10.589-1.339-14.117l-52.443-43.352c10.394-16.343 21.648-32.641 33.517-48.535l62.338 52.948c1.886 1.602 4.192 2.385 6.486 2.385 2.841 0 5.664-1.201 7.647-3.536 3.585-4.221 3.07-10.548-1.151-14.133l-63.104-53.598c8.918-11.334 18.114-22.392 27.503-33.026 30.548-34.598 58.813-56.611 84.009-65.427 8.618-3.015 16.966-4.526 25.141-4.526 10.405 0 20.527 2.448 30.56 7.357 24.129 11.609 54.633 42.114 62.767 62.77l.231.538c8.912 19.253 9.759 36.366 2.745 55.489zm65.399-98.713c-24.309 8.447-43.921 11.734-57.846 12.383.468-.186.932-.362 1.404-.557 18.239-7.531 38.192-21.548 56.184-39.471 4.514-4.497 8.682-9.02 12.487-13.538 30.568-7.088 45.954-2.724 47.368 1.343 1.745 5.024-12.925 23.623-59.597 39.84z"/><path d="m258.616 362.976c-.426 0-.859-.046-1.292-.141-3.246-.711-5.301-3.917-4.591-7.163l2.301-10.516c.71-3.246 3.915-5.304 7.163-4.591 3.246.71 5.301 3.917 4.591 7.163l-2.301 10.516c-.615 2.813-3.105 4.732-5.871 4.732z"/><path d="m224.746 386.535c-.426 0-.859-.046-1.292-.141-3.246-.71-5.301-3.917-4.591-7.163l2.301-10.516c.71-3.245 3.916-5.302 7.163-4.591 3.246.71 5.301 3.917 4.591 7.163l-2.301 10.516c-.615 2.813-3.105 4.732-5.871 4.732z"/><path d="m137.328 435.787c-.426 0-.859-.046-1.292-.141-3.246-.71-5.301-3.917-4.591-7.163l2.301-10.516c.71-3.245 3.915-5.303 7.163-4.591 3.246.71 5.301 3.917 4.591 7.163l-2.301 10.516c-.615 2.813-3.106 4.732-5.871 4.732z"/>
        </g>
    </symbol>
</svg>
