<svg display="none" xmlns="http://www.w3.org/2000/svg">
    <symbol id="behance-logo" viewBox="0 0 97.75 97.75">
        <g>
            <g>
                <path d="M39.337,38.729c0-4.611-3.137-4.611-3.137-4.611h-1.661H23.294v9.894H35.4C37.492,44.011,39.337,43.342,39.337,38.729z"/>
                <path d="M36.201,50.846H23.294v11.85h12.311c1.852-0.053,5.27-0.633,5.27-5.76C40.875,50.784,36.201,50.846,36.201,50.846z"/>
                <path d="M69.243,44.011c-6.849,0-7.804,6.835-7.804,6.835h14.565C76.005,50.846,76.092,44.011,69.243,44.011z"/>
                <path d="M48.875,0C21.882,0,0,21.883,0,48.875S21.882,97.75,48.875,97.75S97.75,75.867,97.75,48.875S75.868,0,48.875,0z
			 M59.531,28.848h18.294v5.46H59.531V28.848z M50.285,57.486c0,13.533-14.084,13.088-14.084,13.088H23.294h-0.379h-9.787V26.236
			h9.787h0.379H36.2c7.012,0,12.547,3.871,12.547,11.805c0,7.935-6.766,8.438-6.766,8.438C50.9,46.479,50.285,57.486,50.285,57.486z
			 M69.33,64.479c7.37,0,7.109-4.77,7.109-4.77h7.803c0,12.659-15.172,11.792-15.172,11.792c-18.207,0-17.036-16.95-17.036-16.95
			S52.02,37.517,69.068,37.517c17.947,0,15.434,19.245,15.434,19.245H61.527C61.527,65.001,69.33,64.479,69.33,64.479z"/>
            </g>
        </g>
        <g>
        </g>
        <g>
        </g>
        <g>
        </g>
        <g>
        </g>
        <g>
        </g>
        <g>
        </g>
        <g>
        </g>
        <g>
        </g>
        <g>
        </g>
        <g>
        </g>
        <g>
        </g>
        <g>
        </g>
        <g>
        </g>
        <g>
        </g>
        <g>
        </g>
    </symbol>
    <symbol id="linkedIn-logo" viewBox="0 0 512 512">
        <path d="m256 0c-141.363281 0-256 114.636719-256 256s114.636719 256 256 256 256-114.636719 256-256-114.636719-256-256-256zm-74.390625 387h-62.347656v-187.574219h62.347656zm-31.171875-213.1875h-.40625c-20.921875 0-34.453125-14.402344-34.453125-32.402344 0-18.40625 13.945313-32.410156 35.273437-32.410156 21.328126 0 34.453126 14.003906 34.859376 32.410156 0 18-13.53125 32.402344-35.273438 32.402344zm255.984375 213.1875h-62.339844v-100.347656c0-25.21875-9.027343-42.417969-31.585937-42.417969-17.222656 0-27.480469 11.601563-31.988282 22.800781-1.648437 4.007813-2.050781 9.609375-2.050781 15.214844v104.75h-62.34375s.816407-169.976562 0-187.574219h62.34375v26.558594c8.285157-12.78125 23.109375-30.960937 56.1875-30.960937 41.019531 0 71.777344 26.808593 71.777344 84.421874zm0 0"/>
    </symbol>
    <symbol id="google-plus-logo" viewBox="0 0 24 24">
        <path d="m12 24c6.624 0 12-5.376 12-12s-5.376-12-12-12-12 5.376-12 12 5.376 12 12 12zm4.283-12.857h1.718v-1.717h1.718v1.718h1.703v1.718h-1.703v1.718h-1.718v-1.718h-1.718zm-7.704-5.144c1.514 0 2.908.533 4.017 1.563l-1.626 1.578c-.639-.625-1.514-.924-2.391-.924-2.076 0-3.736 1.718-3.736 3.779s1.655 3.779 3.736 3.779c1.577 0 3.14-.924 3.392-2.579h-3.392v-2.061h5.657c.063.329.092.658.092 1.001 0 3.426-2.299 5.864-5.749 5.864v.001c-3.329 0-6.001-2.686-6.001-6.001s2.672-6 6.001-6z"/>
    </symbol>
    <symbol id="facebook-logo" viewBox="0 0 512 512">
        <path d="m512 256c0-141.4-114.6-256-256-256s-256 114.6-256 256 114.6 256 256 256c1.5 0 3 0 4.5-.1v-199.2h-55v-64.1h55v-47.2c0-54.7 33.4-84.5 82.2-84.5 23.4 0 43.5 1.7 49.3 2.5v57.2h-33.6c-26.5 0-31.7 12.6-31.7 31.1v40.8h63.5l-8.3 64.1h-55.2v189.5c107-30.7 185.3-129.2 185.3-246.1z"/>
    </symbol>
    <symbol id="twitter-logo" viewBox="0 0 512 512">
        <path d="m256 0c-141.363281 0-256 114.636719-256 256s114.636719 256 256 256 256-114.636719 256-256-114.636719-256-256-256zm116.886719 199.601562c.113281 2.519532.167969 5.050782.167969 7.59375 0 77.644532-59.101563 167.179688-167.183594 167.183594h.003906-.003906c-33.183594 0-64.0625-9.726562-90.066406-26.394531 4.597656.542969 9.277343.8125 14.015624.8125 27.53125 0 52.867188-9.390625 72.980469-25.152344-25.722656-.476562-47.410156-17.464843-54.894531-40.8125 3.582031.6875 7.265625 1.0625 11.042969 1.0625 5.363281 0 10.558593-.722656 15.496093-2.070312-26.886718-5.382813-47.140624-29.144531-47.140624-57.597657 0-.265624 0-.503906.007812-.75 7.917969 4.402344 16.972656 7.050782 26.613281 7.347657-15.777343-10.527344-26.148437-28.523438-26.148437-48.910157 0-10.765624 2.910156-20.851562 7.957031-29.535156 28.976563 35.554688 72.28125 58.9375 121.117187 61.394532-1.007812-4.304688-1.527343-8.789063-1.527343-13.398438 0-32.4375 26.316406-58.753906 58.765625-58.753906 16.902344 0 32.167968 7.144531 42.890625 18.566406 13.386719-2.640625 25.957031-7.53125 37.3125-14.261719-4.394531 13.714844-13.707031 25.222657-25.839844 32.5 11.886719-1.421875 23.214844-4.574219 33.742187-9.253906-7.863281 11.785156-17.835937 22.136719-29.308593 30.429687zm0 0"/>
    </symbol>
</svg>